:SAMPLES-PER-SECOND 30
:FULLY-SPECIFIED
:DEGREES
85
root  -39.2704 35.0305 28.8177 -130.043 -81.8429 171.115
RightUpLeg  -94.9571 -26.6779 36.4111
RightLeg  57.0137 -1.73798 -3.34683
RightFoot  -6.08753 0.32649 -7.9911
RightToes  0.00048216 0.542163 -0.142577
Spine  72.5754 0.0453498 3.14285
Spine1  6.11256 2.84918 -3.30102
HEad  -42.5463 -7.45172 4.74329
LeftShoulder1  6.59574 -26.4988 -14.9747
LeftArm  -90.5995 -56.1038 36.5455
LeftForeArm  -19.4864 -11.6943 3.9523
LeftHand  -0.25398 0.0180481 5.50724
RightShoulder  1.27298 9.60276 1.49368
RightArm  -92.7323 56.9531 -28.5014
RightForeArm  -14.7424 24.3617 5.93909
RightHand  -0.372098 9.85699 -3.33273
LeftUpLeg  -90.5121 19.9937 -37.9442
LeftLeg  48.5488 -2.78871 -2.94103
LeftFoot  -3.4721 -1.15613 16.979
LeftToes  1.06246e-005 4.65855e-005 -8.18505e-006
86
root  -39.267 35.0175 29.1257 -133.997 -81.3328 174.626
RightUpLeg  -93.8174 -26.3619 35.1319
RightLeg  56.5766 -1.97251 -3.67113
RightFoot  -6.06015 0.322448 -7.8596
RightToes  0.00048216 0.542163 -0.142577
Spine  72.4633 -0.169023 3.16726
Spine1  6.30989 2.83551 -3.94859
HEad  -42.9712 -7.11092 5.25107
LeftShoulder1  6.46092 -25.4278 -15.3758
LeftArm  -92.0678 -56.5564 34.7024
LeftForeArm  -16.8342 -13.8015 2.76941
LeftHand  -0.25398 0.0180481 5.50724
RightShoulder  1.27942 9.42932 1.6981
RightArm  -91.8427 56.7294 -28.2681
RightForeArm  -13.5702 25.285 6.08811
RightHand  0.0925208 8.85802 0.277351
LeftUpLeg  -90.4383 20.3916 -38.1201
LeftLeg  48.901 -2.5071 -2.63594
LeftFoot  -3.86627 -1.12283 17.3987
LeftToes  1.06246e-005 4.65855e-005 -8.18505e-006
87
root  -39.1797 35.0712 29.3876 -135.669 -80.8239 175.706
RightUpLeg  -92.4043 -26.0838 33.6515
RightLeg  55.5865 -2.37714 -4.16787
RightFoot  -6.05519 0.329673 -8.00613
RightToes  0.00048216 0.542163 -0.142577
Spine  72.3434 -0.49925 3.15685
Spine1  6.43993 2.75569 -4.67648
HEad  -43.1263 -6.77966 5.99209
LeftShoulder1  6.47538 -24.9139 -15.8798
LeftArm  -92.6281 -56.4946 32.2882
LeftForeArm  -13.8617 -16.147 0.795028
LeftHand  -0.25398 0.0180481 5.50724
RightShoulder  1.2786 9.48412 1.64463
RightArm  -90.9203 56.2117 -27.6352
RightForeArm  -12.3642 25.4083 6.06072
RightHand  0.552589 7.61528 4.4414
LeftUpLeg  -90.0309 20.6868 -38.2013
LeftLeg  48.8374 -2.42855 -2.53251
LeftFoot  -3.60036 -1.16354 17.3773
LeftToes  1.06246e-005 4.65855e-005 -8.18505e-006
88
root  -39.0293 35.1853 29.6325 -136.916 -80.191 176.265
RightUpLeg  -90.5017 -25.5689 31.7535
RightLeg  54.0042 -2.82749 -4.5916
RightFoot  -5.88443 0.349213 -8.14056
RightToes  0.00048216 0.542163 -0.142577
Spine  72.029 -0.769292 3.16066
Spine1  6.698 2.69226 -5.33684
HEad  -42.9865 -6.66209 6.54812
LeftShoulder1  6.67337 -24.8705 -16.6738
LeftArm  -93.2223 -55.9073 29.2715
LeftForeArm  -9.03939 -19.1297 -2.04972
LeftHand  -0.25398 0.0180481 5.50724
RightShoulder  1.24146 9.86254 1.01542
RightArm  -89.969 55.5234 -26.0124
RightForeArm  -11.1248 25.1736 5.94734
RightHand  0.838707 6.51597 7.69283
LeftUpLeg  -89.2752 21.1509 -38.4908
LeftLeg  48.0741 -2.48157 -2.52202
LeftFoot  -3.24998 -1.21084 17.2556
LeftToes  1.06246e-005 4.65855e-005 -8.18505e-006
89
root  -38.8428 35.3494 29.8854 -139.218 -79.5068 177.714
RightUpLeg  -87.9131 -24.7691 29.4422
RightLeg  51.9671 -3.45581 -5.11561
RightFoot  -5.65914 0.361539 -8.03496
RightToes  0.00048216 0.542163 -0.142577
Spine  71.5265 -0.992052 3.35673
Spine1  6.85742 2.81037 -5.97168
HEad  -42.6095 -6.80512 6.84597
LeftShoulder1  6.95625 -25.1397 -17.4998
LeftArm  -91.954 -55.1745 25.1691
LeftForeArm  -4.65144 -21.9845 -4.41792
LeftHand  -0.25398 0.0180481 5.50724
RightShoulder  1.2923 10.5919 0.864741
RightArm  -87.9635 54.8667 -23.5681
RightForeArm  -10.5446 25.8004 6.06588
RightHand  0.896898 5.21384 9.37787
LeftUpLeg  -88.0804 21.9944 -39.0064
LeftLeg  46.5347 -2.59847 -2.50927
LeftFoot  -3.37943 -1.20515 17.4675
LeftToes  1.06246e-005 4.65855e-005 -8.18505e-006
90
root  -38.6184 35.5904 30.1514 -141.749 -78.8756 179.108
RightUpLeg  -84.6855 -23.8903 26.8183
RightLeg  49.4377 -4.47179 -5.93286
RightFoot  -5.2245 0.384172 -7.83052
RightToes  0.00048216 0.542163 -0.142577
Spine  70.9321 -0.958205 3.63616
Spine1  6.66632 3.14195 -5.89715
HEad  -41.8687 -7.22555 6.79872
LeftShoulder1  7.63061 -25.7526 -19.3849
LeftArm  -87.3476 -54.4651 20.2292
LeftForeArm  -2.86682 -24.7986 -5.51228
LeftHand  -0.25398 0.0180481 5.50724
RightShoulder  1.52 11.3536 2.08093
RightArm  -82.8972 54.2937 -20.9673
RightForeArm  -12.6073 27.9491 6.68024
RightHand  0.731375 3.24751 9.47979
LeftUpLeg  -86.3809 23.1108 -39.6214
LeftLeg  44.2873 -2.823 -2.53519
LeftFoot  -3.48045 -1.22481 17.9713
LeftToes  1.06246e-005 4.65855e-005 -8.18505e-006
91
root  -38.3438 35.9342 30.4405 -144.11 -78.2095 179.946
RightUpLeg  -80.8103 -22.891 23.774
RightLeg  46.2569 -5.72718 -6.70044
RightFoot  -4.01765 0.466549 -7.6957
RightToes  0.00048216 0.542163 -0.142577
Spine  70.1228 -0.591164 3.76503
Spine1  6.71612 3.44085 -4.83768
HEad  -40.9403 -7.67167 6.48757
LeftShoulder1  8.61866 -26.2262 -22.4812
LeftArm  -80.4589 -53.5402 15.3146
LeftForeArm  -3.28477 -27.9305 -6.20317
LeftHand  -0.25398 0.0180481 5.50724
RightShoulder  1.76121 11.832 3.49482
RightArm  -75.2328 53.6999 -17.8351
RightForeArm  -17.7542 30.8692 7.66487
RightHand  0.446627 0.936693 8.07733
LeftUpLeg  -84.2287 24.5064 -40.2722
LeftLeg  41.4506 -3.25696 -2.68074
LeftFoot  -2.82928 -1.36713 18.4276
LeftToes  1.06246e-005 4.65855e-005 -8.18505e-006
92
root  -38.0402 36.3524 30.7721 -147.158 -77.3829 -179.026
RightUpLeg  -76.1587 -21.5008 20.1714
RightLeg  42.6155 -7.10085 -7.23991
RightFoot  -1.99417 0.592371 -7.40358
RightToes  0.00048216 0.542163 -0.142577
Spine  69.1656 -1.52426 3.93705
Spine1  7.64014 3.12826 -6.5693
HEad  -40.5233 -6.89243 7.89434
LeftShoulder1  7.73103 -25.1195 -20.4227
LeftArm  -72.9735 -51.6736 8.27224
LeftForeArm  -4.84643 -31.0519 -7.06137
LeftHand  -0.25398 0.0180481 5.50724
RightShoulder  2.01884 12.1376 5.10854
RightArm  -68.5411 53.6676 -13.4307
RightForeArm  -23.4911 33.5557 8.66454
RightHand  0.208449 -0.920708 5.68457
LeftUpLeg  -81.6137 26.4554 -40.9734
LeftLeg  38.1232 -3.96205 -2.94975
LeftFoot  -1.73299 -1.59556 18.9215
LeftToes  1.06246e-005 4.65855e-005 -8.18505e-006
